<svg xmlns="http://www.w3.org/2000/svg" fill-rule="evenodd" clip-rule="evenodd" image-rendering="optimizeQuality" shape-rendering="geometricPrecision" text-rendering="geometricPrecision" viewBox="0 0 2048 2048"><path fill="none" d="M0 0h2048v2048H0z"/><path fill="none" d="M255.999 255.999h1536v1536h-1536z"/><path fill="#388e3c" fill-rule="nonzero" d="M293.107 588.355c329.321-45.336 517.46 36.005 607.641 154.028 86.118 112.709 82.664 258.063 27.46 362.099-8.357 15.746-17.874 30.574-28.415 44.26l-105.108 80.889c-48.677 18.545-104.595 18.865-163.812-6.775-122.694-53.129-258.805-224.642-364.61-593.601l-10.264-35.791 37.108-5.109zM1163.77 575.463c80.356-119.745 260.779-210.504 591.639-190.695l36.588 2.192-6.705 35.923c-68.477 366.85-187.006 544.793-304.393 606.763-94.697 49.993-187.68 28.477-256.842-30.774l-78.83-103.987c-45.793-95.337-49.878-217.462 18.542-319.422z"/><path fill="#2e7d32" fill-rule="nonzero" d="M1394.27 812.146c16.433-6.992 24.087-25.987 17.095-42.42-6.992-16.433-25.986-24.087-42.42-17.095-127.845 54.79-236.53 181.393-307.81 343.388-69.193 157.257-103.666 348.891-86.244 540.538 1.608 17.763 17.312 30.86 35.075 29.252 17.763-1.61 30.86-17.313 29.25-35.076-16.39-180.303 16.06-360.625 81.18-508.628 64.914-147.529 161.713-261.892 273.873-309.959zM711.413 927.881c-13.147-12.098-33.614-11.246-45.712 1.9-12.097 13.147-11.247 33.615 1.9 45.713 82.614 76.069 130.29 153.99 158.797 254.312 29.41 103.506 39.214 231.627 45.62 404.98.627 17.832 15.596 31.778 33.429 31.149 17.834-.63 31.78-15.597 31.15-33.43-6.593-178.438-16.837-310.866-47.9-420.175-31.966-112.491-85.194-199.655-177.284-284.45z"/></svg>